<svg xmlns="http://www.w3.org/2000/svg" width="43" height="43" viewBox="0 0 43 43">
  <g id="Grupo_3729" data-name="Grupo 3729" transform="translate(-1198 -388)">
    <circle id="Elipse_6" data-name="Elipse 6" cx="21.5" cy="21.5" r="21.5" transform="translate(1198 388)" fill="#16d475"/>
    <g id="_001-tablet" data-name="001-tablet" transform="translate(1207 397)">
      <path id="Trazado_2954" data-name="Trazado 2954" d="M19.5,24H4.5A2.5,2.5,0,0,1,2,21.5V2.5A2.5,2.5,0,0,1,4.5,0h15A2.5,2.5,0,0,1,22,2.5v19A2.5,2.5,0,0,1,19.5,24ZM4.5,1A1.5,1.5,0,0,0,3,2.5v19A1.5,1.5,0,0,0,4.5,23h15A1.5,1.5,0,0,0,21,21.5V2.5A1.5,1.5,0,0,0,19.5,1Z" fill="#fff"/>
      <path id="Trazado_2955" data-name="Trazado 2955" d="M18.5,21H5.5a.5.5,0,0,1-.5-.5V8.5A.5.5,0,0,1,5.5,8h13a.5.5,0,0,1,.5.5v12A.5.5,0,0,1,18.5,21ZM6,20H18V9H6Z" fill="#fff"/>
      <path id="Trazado_2956" data-name="Trazado 2956" d="M9.5,21a.5.5,0,0,1-.5-.5V8.5a.5.5,0,0,1,1,0v12A.5.5,0,0,1,9.5,21Z" fill="#fff"/>
      <path id="Trazado_2957" data-name="Trazado 2957" d="M18.5,12H5.5a.5.5,0,0,1,0-1h13a.5.5,0,0,1,0,1Z" fill="#fff"/>
      <path id="Trazado_2958" data-name="Trazado 2958" d="M18.5,15H5.5a.5.5,0,0,1,0-1h13a.5.5,0,0,1,0,1Z" fill="#fff"/>
      <path id="Trazado_2959" data-name="Trazado 2959" d="M18.5,18H5.5a.5.5,0,0,1,0-1h13a.5.5,0,0,1,0,1Z" fill="#fff"/>
    </g>
  </g>
</svg>
